:SAMPLES-PER-SECOND 30
:FRAME-RANGE 1-1770
:FULLY-SPECIFIED
:DEGREES
1439
root  28.3401 38.6788 -5.79539 -18.01 -71.9921 23.5578
RightUpLeg  5.16607 19.3576 5.49394
RightLeg  17.2626 -4.72091 -3.67654
RightFoot  -21.3535 -0.867674 -8.24117
RightToes  6.35937e-011 1.2921e-014 -6.02303e-014
Spine  5.15428 -0.768273 -3.16594
Spine1  -2.38326 -0.696912 -1.38749
HEad  1.84982 -12.6262 2.1294
LeftShoulder1  1.06359 0.268655 -26.7263
LeftArm  -1.92328 -24.1338 -26.3502
LeftForeArm  34.2207 -57.6329 -14.7425
LeftHand  0.0207747 -2.75213 -0.0833957
RightShoulder  4.72372 5.58153 45.5118
RightArm  29.2363 -12.2903 14.522
RightForeArm  92.357 80.3046 67.3016
RightHand  -0.987651 3.16366 -13.5898
LeftUpLeg  -18.3122 5.40448 5.87102
LeftLeg  4.48404 -12.4918 -2.31205
LeftFoot  -0.627822 1.70286 -17.9947
LeftToes  3.18074e-010 1.39432e-010 -7.71186e-011
1440
root  27.5635 38.3693 -4.9327 -21.761 -75.1983 26.4568
RightUpLeg  5.48557 22.6009 5.33449
RightLeg  22.0769 -5.68916 -2.75021
RightFoot  -23.2022 -0.801867 -6.20096
RightToes  6.35937e-011 1.2921e-014 -6.02303e-014
Spine  5.58855 -0.737657 -4.16368
Spine1  -2.17044 -0.847609 -0.555161
HEad  2.0994 -14.7535 2.74597
LeftShoulder1  1.08072 0.1611 -26.1632
LeftArm  -1.19264 -25.1852 -27.5133
LeftForeArm  34.0873 -57.3991 -14.6052
LeftHand  0.0217209 -2.7383 -0.0981584
RightShoulder  4.76155 5.60911 45.7449
RightArm  27.9973 -11.9539 13.7436
RightForeArm  89.0655 80.0621 64.2561
RightHand  -0.968134 3.39564 -12.9922
LeftUpLeg  -18.9513 6.75186 5.55677
LeftLeg  11.1951 -13.7033 -3.47692
LeftFoot  1.12472 1.76076 -16.0961
LeftToes  3.18074e-010 1.39432e-010 -7.71186e-011
1441
root  26.8007 38.13 -4.21086 -29.0836 -78.4588 33.2627
RightUpLeg  2.79308 19.1146 3.11872
RightLeg  30.2531 -0.923773 -0.819899
RightFoot  -22.9971 -0.378314 -2.18108
RightToes  6.35937e-011 1.2921e-014 -6.02303e-014
Spine  6.41754 -0.540362 -6.27433
Spine1  -2.41067 -1.03866 0.852372
HEad  2.65898 -16.7133 3.72171
LeftShoulder1  1.12704 0.0091488 -26.0817
LeftArm  -0.0875324 -26.3531 -28.6502
LeftForeArm  33.8452 -57.0187 -14.3884
LeftHand  0.0101267 -2.77375 0.070323
RightShoulder  4.7593 5.43151 46.6589
RightArm  25.8202 -11.2522 13.9061
RightForeArm  78.0937 78.6982 51.5233
RightHand  -0.981231 3.67191 -12.7805
LeftUpLeg  -19.7678 10.2818 5.197
LeftLeg  18.7925 -13.8594 -4.88224
LeftFoot  -3.12828 1.13831 -15.5161
LeftToes  3.18074e-010 1.39432e-010 -7.71186e-011
1442
root  26.0791 38.0656 -3.5262 -47.2764 -82.032 51.173
RightUpLeg  -1.91141 12.6179 -0.817877
RightLeg  40.0182 3.64999 3.00594
RightFoot  -18.7625 0.323606 6.94599
RightToes  6.35937e-011 1.2921e-014 -6.02303e-014
Spine  6.79552 -0.370078 -7.26352
Spine1  -2.13061 -0.973382 0.343984
HEad  2.99561 -17.6126 4.28489
LeftShoulder1  1.20764 -0.242723 -26.0673
LeftArm  1.07193 -26.8264 -29.8769
LeftForeArm  32.9755 -56.2715 -14.0133
LeftHand  0.016525 -2.89914 -0.0110329
RightShoulder  4.96166 5.66201 47.4328
RightArm  23.8267 -10.1031 14.3642
RightForeArm  66.5705 76.2567 39.6819
RightHand  -0.949936 3.56417 -12.5257
LeftUpLeg  -18.7042 11.2746 5.20395
LeftLeg  22.4268 -10.6903 -4.48279
LeftFoot  -6.38948 0.680296 -14.783
LeftToes  3.18074e-010 1.39432e-010 -7.71186e-011
